<?xml version="1.0" encoding="UTF-8" standalone="no"?>
<!DOCTYPE svg PUBLIC "-//W3C//DTD SVG 20010904//EN" "http://www.w3.org/TR/2001/REC-SVG-20010904/DTD/svg10.dtd">
<svg version="1.0" xmlns="http://www.w3.org/2000/svg" width="800.000000pt" height="457.000000pt" viewBox="0 0 800.000000 457.000000" preserveAspectRatio="xMidYMid meet">

<g transform="translate(0.000000,457.000000) scale(0.100000,-0.100000)" fill="#000000" stroke="none">
<path d="M4389 3634 c-58 -61 -228 -194 -354 -277 -130 -85 -391 -219 -520 -266 l-80 -29 0 -47 0 -47 -140 -47 c-184 -63 -334 -130 -464 -208 l-105 -64 -146 -3 c-201 -5 -309 -34 -522 -144 -5 -2 -8 15 -8 38 0 148 -99 250 -244 250 -47 0 -326 -71 -466 -119 -169 -57 -446 -167 -494 -195 -60 -35 -133 -118 -164 -184 -21 -47 -26 -72 -26 -147 -1 -76 3 -97 23 -135 13 -24 37 -57 53 -71 l28 -27 -172 -143 c-244 -201 -332 -283 -374 -346 -146 -221 -57 -441 170 -420 85 8 161 37 504 194 502 228 646 282 967 358 l180 42 22 39 c13 22 24 42 25 46 2 3 39 2 83 -2 108 -11 260 4 391 38 l109 28 40 -24 c76 -45 190 -96 300 -133 61 -21 109 -43 107 -49 -1 -6 -13 -28 -27 -48 -71 -109 -52 -268 39 -323 50 -31 97 -24 265 40 377 143 602 202 991 256 63 9 142 20 175 25 33 5 132 14 220 20 222 15 340 29 387 46 49 17 48 17 48 0 0 -29 59 -66 104 -66 67 0 143 27 187 67 36 33 41 34 57 20 43 -39 126 -67 200 -67 40 0 82 5 93 11 14 7 30 7 57 -2 54 -18 150 -14 211 10 l53 20 40 -21 c33 -17 51 -20 109 -15 48 4 90 1 135 -10 59 -15 72 -15 145 0 77 15 82 15 112 -4 33 -19 86 -24 122 -10 13 5 30 2 50 -11 42 -25 106 -23 164 7 l48 24 24 -25 c36 -39 73 -54 129 -54 43 0 50 -3 50 -20 0 -26 53 -84 90 -100 46 -19 204 -9 261 17 93 42 154 129 164 232 11 112 -37 161 -174 181 -71 10 -180 1 -233 -19 -19 -7 -27 -5 -36 10 -21 33 -70 51 -133 47 -70 -4 -65 5 11 20 183 35 260 115 230 240 -6 26 -11 52 -10 57 0 6 3 41 6 78 5 52 2 79 -11 114 -37 97 -138 169 -272 194 -86 16 -304 6 -379 -18 l-60 -20 -21 31 c-11 17 -44 45 -74 61 -51 28 -60 30 -169 30 -82 0 -133 -6 -176 -19 l-61 -18 -50 50 c-63 63 -105 76 -233 70 -70 -3 -105 -9 -134 -25 l-39 -20 -43 32 c-24 18 -60 39 -81 45 -21 7 -43 18 -48 25 -24 29 -82 55 -125 55 -68 0 -101 26 -106 84 -6 74 -48 133 -119 169 -43 21 -190 53 -330 72 -66 9 -130 18 -141 20 -21 5 -20 8 27 129 27 69 69 171 94 227 24 57 43 105 40 107 -6 6 -495 102 -521 102 -11 0 -36 -16 -55 -36z m251 -130 c96 -15 178 -30 183 -34 4 -3 -12 -51 -36 -106 -46 -103 -130 -325 -125 -329 2 -1 62 -7 133 -14 162 -15 386 -56 440 -80 76 -34 107 -93 81 -155 l-14 -34 72 -36 c49 -25 84 -36 114 -36 35 0 49 -6 73 -29 16 -16 46 -35 66 -41 54 -17 109 -55 129 -88 l17 -30 46 29 c25 16 61 34 81 39 46 13 145 13 192 0 43 -12 98 -71 98 -105 0 -13 4 -26 8 -29 5 -3 49 9 98 27 75 26 104 31 184 32 82 0 102 -3 145 -25 43 -22 53 -32 71 -77 12 -32 24 -49 30 -43 5 5 45 21 89 36 74 26 92 28 230 28 134 1 156 -2 208 -23 134 -53 191 -160 139 -262 -17 -34 -17 -35 5 -68 28 -41 29 -57 4 -97 -15 -24 -34 -37 -83 -53 -95 -32 -210 -51 -304 -51 -74 0 -85 -2 -94 -20 -14 -27 -54 -42 -87 -34 -21 6 -24 11 -21 35 4 27 1 30 -46 43 -28 9 -68 24 -90 35 -33 18 -45 19 -95 9 -77 -14 -187 -4 -249 22 -56 24 -128 94 -138 134 -3 14 -11 26 -18 26 -6 0 -83 -35 -171 -77 -154 -75 -162 -78 -230 -77 -82 0 -149 26 -190 72 l-26 30 -42 -24 c-37 -21 -181 -145 -150 -130 7 4 61 11 121 16 177 16 332 -14 362 -70 22 -41 -18 -75 -135 -116 -17 -5 -14 -9 22 -25 23 -11 63 -22 88 -26 44 -6 48 -4 76 30 59 72 246 136 354 121 79 -10 125 -40 93 -60 -7 -5 -4 -10 10 -15 18 -7 22 -16 22 -56 l0 -48 18 32 c46 85 215 149 292 110 42 -21 37 -45 -15 -68 -33 -15 -50 -18 -58 -10 -7 7 -6 15 2 25 7 9 11 20 9 26 -5 17 -59 -29 -73 -64 -26 -61 16 -82 104 -51 39 14 42 13 39 -3 -2 -9 -24 -27 -49 -40 -60 -30 -163 -32 -218 -5 -32 16 -42 17 -67 6 -49 -21 -102 -16 -129 12 -14 13 -25 29 -25 35 0 6 -21 0 -47 -13 -108 -54 -187 -63 -254 -28 l-40 21 -28 -21 c-38 -28 -114 -27 -178 1 -45 20 -123 84 -123 102 0 4 18 12 40 18 56 15 100 55 100 91 0 31 -17 45 -62 50 -26 4 -31 -3 -90 -121 -36 -71 -74 -132 -88 -142 -37 -27 -134 -45 -153 -29 -12 10 -13 18 -5 42 9 27 76 143 122 212 l19 28 -37 -3 c-21 -1 -40 3 -44 9 -5 7 -34 -5 -84 -34 -67 -39 -76 -48 -68 -64 6 -10 10 -31 10 -48 0 -88 -39 -101 -387 -126 -120 -9 -263 -23 -318 -31 -55 -9 -149 -22 -210 -30 -279 -36 -560 -111 -916 -245 -86 -32 -166 -59 -178 -59 -31 0 -69 42 -77 85 -14 79 37 167 135 233 l62 41 -43 11 c-275 71 -396 116 -531 198 l-63 38 -59 -18 c-150 -45 -255 -60 -395 -55 -74 2 -143 7 -152 11 -13 6 -24 -4 -48 -48 -20 -34 -40 -58 -53 -61 -394 -88 -588 -154 -981 -335 -437 -201 -561 -250 -630 -250 -17 0 -50 9 -74 20 -114 52 -86 209 64 356 54 53 523 447 768 646 36 29 3 20 -55 -15 -30 -19 -81 -50 -113 -70 -33 -21 -69 -38 -80 -38 -64 -4 -97 16 -127 78 -57 117 29 296 173 363 150 69 574 221 707 254 191 48 265 43 321 -21 52 -59 49 -144 -8 -242 -38 -67 -245 -275 -409 -413 -79 -66 -143 -121 -143 -124 0 -2 30 8 68 22 162 62 270 101 313 113 46 13 47 14 53 61 20 147 172 314 371 406 137 63 248 87 420 89 l150 2 70 48 c135 91 407 209 618 266 l88 24 -6 31 c-5 30 -4 31 112 94 183 98 462 268 638 388 88 61 167 111 175 111 8 1 94 -11 190 -25z m1544 -1551 c37 -41 37 -43 15 -43 -46 -1 -161 -29 -214 -54 l-54 -24 -9 26 c-9 26 -7 28 102 84 61 31 114 56 117 55 3 -1 22 -21 43 -44z m705 -192 c12 -12 17 -27 14 -45 -8 -41 -65 -129 -95 -146 -25 -13 -31 -13 -55 0 -14 8 -31 22 -36 32 -30 46 61 178 123 178 17 0 38 -8 49 -19z m218 -28 c10 -12 9 -23 -2 -49 l-13 -33 46 21 c63 27 141 34 166 15 17 -13 18 -19 8 -60 -17 -64 -15 -73 8 -45 60 78 327 108 405 46 24 -18 25 -22 11 -42 -12 -20 -12 -23 1 -32 14 -9 14 -13 -1 -41 -44 -87 -131 -133 -247 -133 -57 0 -72 4 -95 23 -17 15 -24 28 -19 36 12 21 71 41 116 41 l42 0 -21 -23 c-22 -23 -30 -57 -14 -57 17 0 92 92 92 113 0 3 -28 -2 -62 -9 -78 -17 -148 -18 -185 -2 -15 6 -51 10 -78 9 -66 -3 -105 24 -105 75 0 19 -2 34 -5 34 -2 0 -44 -18 -91 -40 -98 -45 -125 -49 -154 -20 -26 26 -13 62 43 126 62 70 121 88 154 47z"/>
<path d="M4255 3319 c-206 -136 -401 -256 -540 -330 -52 -28 -97 -54 -99 -58 -2 -3 111 17 252 46 142 29 260 52 264 53 8 0 -28 -90 -42 -104 -4 -4 -77 -19 -162 -32 -461 -72 -909 -235 -1145 -416 l-58 -46 -29 23 c-39 31 -98 45 -188 45 -107 0 -201 -24 -308 -76 -123 -61 -229 -162 -285 -273 -33 -67 -37 -81 -33 -133 3 -41 1 -58 -8 -58 -31 0 -201 -57 -389 -130 -198 -77 -421 -148 -431 -137 -3 3 48 49 113 103 376 312 473 395 561 483 122 122 174 197 180 261 4 42 1 49 -23 68 -16 12 -42 22 -60 22 -69 0 -216 -33 -355 -79 -157 -52 -490 -180 -549 -211 -43 -22 -92 -72 -115 -117 -34 -67 -11 -173 38 -173 11 0 59 25 106 56 47 30 118 71 157 90 88 42 241 87 279 82 26 -3 19 -11 -101 -119 -72 -63 -200 -174 -286 -245 -85 -71 -243 -201 -350 -290 -308 -255 -369 -323 -369 -408 0 -41 20 -56 73 -56 62 0 167 40 498 191 493 224 642 279 949 353 158 38 170 46 192 121 6 22 13 42 14 43 1 2 29 -6 61 -18 46 -18 86 -24 190 -28 143 -5 267 10 410 51 l78 23 90 -47 c159 -84 361 -145 639 -193 l129 -22 -74 -28 c-162 -62 -305 -151 -334 -207 -21 -39 -20 -89 1 -89 9 0 87 27 173 59 487 184 862 262 1471 306 118 9 222 17 230 19 8 2 27 7 43 10 15 4 27 10 27 14 0 12 -82 50 -124 57 -36 7 -60 25 -33 25 31 0 276 133 342 185 38 30 101 73 141 95 39 21 93 55 119 75 34 26 46 32 41 19 -4 -11 -10 -33 -13 -51 -10 -57 64 -103 167 -103 35 0 79 16 210 79 91 44 188 89 216 100 l51 20 -5 -44 c-6 -60 2 -87 40 -124 56 -55 179 -75 306 -51 45 8 55 7 94 -15 132 -73 393 -80 596 -14 34 11 62 25 62 30 0 18 -56 30 -115 25 -186 -17 -250 -18 -270 -3 -19 15 -17 15 22 10 92 -12 275 42 329 98 57 60 24 138 -75 176 -59 23 -309 26 -386 4 -96 -27 -171 -74 -212 -131 l-25 -35 6 55 c4 30 9 76 12 101 8 59 -6 85 -54 99 -97 27 -212 7 -381 -66 -57 -24 -106 -43 -108 -40 -2 2 6 27 17 56 40 103 9 143 -112 144 -92 1 -149 -25 -223 -101 l-53 -55 0 54 c1 102 -62 152 -185 146 -76 -3 -97 10 -47 29 50 19 37 35 -27 32 -48 -1 -71 5 -133 35 -134 64 -173 69 -450 63 -154 -4 -275 -11 -325 -21 -43 -8 -81 -13 -84 -11 -9 10 23 95 38 99 59 18 211 28 371 26 282 -5 314 -4 338 9 30 16 28 39 -5 52 -85 34 -461 89 -602 89 l-60 0 30 83 c17 45 55 142 86 215 30 73 53 135 51 136 -4 4 -271 66 -278 65 -3 0 -86 -54 -185 -120z m238 -768 c52 -36 120 -108 143 -152 9 -19 19 -64 22 -101 4 -61 2 -74 -27 -133 -21 -43 -51 -81 -90 -117 -61 -55 -184 -128 -196 -116 -8 8 9 183 31 313 18 112 66 335 71 335 3 0 23 -13 46 -29z m-598 -128 c-47 -138 -108 -372 -120 -460 -4 -31 -12 -53 -19 -53 -24 0 -120 66 -149 102 -78 97 -26 254 133 402 56 51 190 149 196 143 2 -1 -17 -62 -41 -134z m-1382 -83 c-1 -50 -30 -125 -70 -182 -43 -64 -153 -124 -153 -85 0 34 35 128 70 188 46 78 102 131 133 127 19 -3 22 -9 20 -48z m4583 -85 c11 -28 -7 -85 -38 -121 -50 -57 -121 -83 -134 -49 -10 25 35 102 83 145 48 42 80 51 89 25z m-4502 -220 c16 -24 15 -24 -32 -46 -26 -11 -75 -23 -109 -26 -52 -5 -67 -2 -97 17 -20 12 -36 25 -36 28 0 4 35 7 78 8 56 0 89 6 122 21 58 27 55 27 74 -2z"/>
<path d="M6140 1780 c-54 -28 -93 -74 -85 -99 9 -30 57 -27 130 9 56 28 58 30 23 25 -40 -6 -49 4 -23 25 18 15 19 21 3 42 -12 15 -16 15 -48 -2z"/>
<path d="M7578 1630 c-57 -17 -108 -58 -108 -87 0 -7 121 5 129 13 3 3 -1 9 -8 13 -11 7 -9 11 8 20 11 7 21 21 21 31 0 22 -2 22 -42 10z"/>
</g>
</svg>